<?xml version="1.0" standalone="no"?>
 <!DOCTYPE svg PUBLIC "-//W3C//DTD SVG 1.1//EN" 
 "http://www.w3.org/Graphics/SVG/1.1/DTD/svg11.dtd"> 
<svg
  xmlns:svg="http://www.w3.org/2000/svg"
  xmlns="http://www.w3.org/2000/svg"
  xmlns:xlink="http://www.w3.org/1999/xlink"
  xmlns:inkscape="http://www.inkscape.org/namespaces/inkscape"
  version="1.1"
  width="33.807400mm" height="12.192000mm" viewBox="0.000000 0.000000 33.807400 12.192000">
<title>SVG Image created as GCT_USB4105-GF-A_16P_TopMnt_Horizontal.svg date 2026-08-15T11:37:46 </title>
  <desc>Image generated by PCBNEW </desc>
<g style="fill:#000000; fill-opacity:1.000000;stroke:#000000; stroke-opacity:1.000000;
stroke-linecap:round; stroke-linejoin:round;"
 transform="translate(0 0) scale(1 1)">
<path style="fill:#000000; fill-opacity:1.000000; stroke:none;fill-rule:evenodd;"
d="M 13.410716,2.243250
13.422134,2.185847
13.454650,2.137184
13.503313,2.104668
13.560716,2.093250
13.860716,2.093250
13.918119,2.104668
13.966782,2.137184
13.999298,2.185847
14.010716,2.243250
14.010716,3.093250
13.999298,3.150653
13.966782,3.199316
13.918119,3.231832
13.860716,3.243250
13.560716,3.243250
13.503313,3.231832
13.454650,3.199316
13.422134,3.150653
13.410716,3.093250
Z" /> 
<path style="fill:#000000; fill-opacity:1.000000; stroke:none;fill-rule:evenodd;"
d="M 14.210716,2.243250
14.222134,2.185847
14.254650,2.137184
14.303313,2.104668
14.360716,2.093250
14.660716,2.093250
14.718119,2.104668
14.766782,2.137184
14.799298,2.185847
14.810716,2.243250
14.810716,3.093250
14.799298,3.150653
14.766782,3.199316
14.718119,3.231832
14.660716,3.243250
14.360716,3.243250
14.303313,3.231832
14.254650,3.199316
14.222134,3.150653
14.210716,3.093250
Z" /> 
<path style="fill:#000000; fill-opacity:1.000000; stroke:none;fill-rule:evenodd;"
d="M 15.510716,2.168250
15.516425,2.139549
15.532683,2.115217
15.557015,2.098959
15.585716,2.093250
15.735716,2.093250
15.764417,2.098959
15.788749,2.115217
15.805007,2.139549
15.810716,2.168250
15.810716,3.168250
15.805007,3.196951
15.788749,3.221283
15.764417,3.237541
15.735716,3.243250
15.585716,3.243250
15.557015,3.237541
15.532683,3.221283
15.516425,3.196951
15.510716,3.168250
Z" /> 
<path style="fill:#000000; fill-opacity:1.000000; stroke:none;fill-rule:evenodd;"
d="M 16.510716,2.168250
16.516425,2.139549
16.532683,2.115217
16.557015,2.098959
16.585716,2.093250
16.735716,2.093250
16.764417,2.098959
16.788749,2.115217
16.805007,2.139549
16.810716,2.168250
16.810716,3.168250
16.805007,3.196951
16.788749,3.221283
16.764417,3.237541
16.735716,3.243250
16.585716,3.243250
16.557015,3.237541
16.532683,3.221283
16.516425,3.196951
16.510716,3.168250
Z" /> 
<path style="fill:#000000; fill-opacity:1.000000; stroke:none;fill-rule:evenodd;"
d="M 17.010716,2.168250
17.016425,2.139549
17.032683,2.115217
17.057015,2.098959
17.085716,2.093250
17.235716,2.093250
17.264417,2.098959
17.288749,2.115217
17.305007,2.139549
17.310716,2.168250
17.310716,3.168250
17.305007,3.196951
17.288749,3.221283
17.264417,3.237541
17.235716,3.243250
17.085716,3.243250
17.057015,3.237541
17.032683,3.221283
17.016425,3.196951
17.010716,3.168250
Z" /> 
<path style="fill:#000000; fill-opacity:1.000000; stroke:none;fill-rule:evenodd;"
d="M 18.010716,2.168250
18.016425,2.139549
18.032683,2.115217
18.057015,2.098959
18.085716,2.093250
18.235716,2.093250
18.264417,2.098959
18.288749,2.115217
18.305007,2.139549
18.310716,2.168250
18.310716,3.168250
18.305007,3.196951
18.288749,3.221283
18.264417,3.237541
18.235716,3.243250
18.085716,3.243250
18.057015,3.237541
18.032683,3.221283
18.016425,3.196951
18.010716,3.168250
Z" /> 
<path style="fill:#000000; fill-opacity:1.000000; stroke:none;fill-rule:evenodd;"
d="M 19.010716,2.243250
19.022134,2.185847
19.054650,2.137184
19.103313,2.104668
19.160716,2.093250
19.460716,2.093250
19.518119,2.104668
19.566782,2.137184
19.599298,2.185847
19.610716,2.243250
19.610716,3.093250
19.599298,3.150653
19.566782,3.199316
19.518119,3.231832
19.460716,3.243250
19.160716,3.243250
19.103313,3.231832
19.054650,3.199316
19.022134,3.150653
19.010716,3.093250
Z" /> 
<path style="fill:#000000; fill-opacity:1.000000; stroke:none;fill-rule:evenodd;"
d="M 19.810716,2.243250
19.822134,2.185847
19.854650,2.137184
19.903313,2.104668
19.960716,2.093250
20.260716,2.093250
20.318119,2.104668
20.366782,2.137184
20.399298,2.185847
20.410716,2.243250
20.410716,3.093250
20.399298,3.150653
20.366782,3.199316
20.318119,3.231832
20.260716,3.243250
19.960716,3.243250
19.903313,3.231832
19.854650,3.199316
19.822134,3.150653
19.810716,3.093250
Z" /> 
<path style="fill:#000000; fill-opacity:1.000000; stroke:none;fill-rule:evenodd;"
d="M 19.810716,2.243250
19.822134,2.185847
19.854650,2.137184
19.903313,2.104668
19.960716,2.093250
20.260716,2.093250
20.318119,2.104668
20.366782,2.137184
20.399298,2.185847
20.410716,2.243250
20.410716,3.093250
20.399298,3.150653
20.366782,3.199316
20.318119,3.231832
20.260716,3.243250
19.960716,3.243250
19.903313,3.231832
19.854650,3.199316
19.822134,3.150653
19.810716,3.093250
Z" /> 
<path style="fill:#000000; fill-opacity:1.000000; stroke:none;fill-rule:evenodd;"
d="M 19.010716,2.243250
19.022134,2.185847
19.054650,2.137184
19.103313,2.104668
19.160716,2.093250
19.460716,2.093250
19.518119,2.104668
19.566782,2.137184
19.599298,2.185847
19.610716,2.243250
19.610716,3.093250
19.599298,3.150653
19.566782,3.199316
19.518119,3.231832
19.460716,3.243250
19.160716,3.243250
19.103313,3.231832
19.054650,3.199316
19.022134,3.150653
19.010716,3.093250
Z" /> 
<path style="fill:#000000; fill-opacity:1.000000; stroke:none;fill-rule:evenodd;"
d="M 18.510716,2.168250
18.516425,2.139549
18.532683,2.115217
18.557015,2.098959
18.585716,2.093250
18.735716,2.093250
18.764417,2.098959
18.788749,2.115217
18.805007,2.139549
18.810716,2.168250
18.810716,3.168250
18.805007,3.196951
18.788749,3.221283
18.764417,3.237541
18.735716,3.243250
18.585716,3.243250
18.557015,3.237541
18.532683,3.221283
18.516425,3.196951
18.510716,3.168250
Z" /> 
<path style="fill:#000000; fill-opacity:1.000000; stroke:none;fill-rule:evenodd;"
d="M 17.510716,2.168250
17.516425,2.139549
17.532683,2.115217
17.557015,2.098959
17.585716,2.093250
17.735716,2.093250
17.764417,2.098959
17.788749,2.115217
17.805007,2.139549
17.810716,2.168250
17.810716,3.168250
17.805007,3.196951
17.788749,3.221283
17.764417,3.237541
17.735716,3.243250
17.585716,3.243250
17.557015,3.237541
17.532683,3.221283
17.516425,3.196951
17.510716,3.168250
Z" /> 
<path style="fill:#000000; fill-opacity:1.000000; stroke:none;fill-rule:evenodd;"
d="M 16.010716,2.168250
16.016425,2.139549
16.032683,2.115217
16.057015,2.098959
16.085716,2.093250
16.235716,2.093250
16.264417,2.098959
16.288749,2.115217
16.305007,2.139549
16.310716,2.168250
16.310716,3.168250
16.305007,3.196951
16.288749,3.221283
16.264417,3.237541
16.235716,3.243250
16.085716,3.243250
16.057015,3.237541
16.032683,3.221283
16.016425,3.196951
16.010716,3.168250
Z" /> 
<path style="fill:#000000; fill-opacity:1.000000; stroke:none;fill-rule:evenodd;"
d="M 15.010716,2.168250
15.016425,2.139549
15.032683,2.115217
15.057015,2.098959
15.085716,2.093250
15.235716,2.093250
15.264417,2.098959
15.288749,2.115217
15.305007,2.139549
15.310716,2.168250
15.310716,3.168250
15.305007,3.196951
15.288749,3.221283
15.264417,3.237541
15.235716,3.243250
15.085716,3.243250
15.057015,3.237541
15.032683,3.221283
15.016425,3.196951
15.010716,3.168250
Z" /> 
<path style="fill:#000000; fill-opacity:1.000000; stroke:none;fill-rule:evenodd;"
d="M 14.210716,2.243250
14.222134,2.185847
14.254650,2.137184
14.303313,2.104668
14.360716,2.093250
14.660716,2.093250
14.718119,2.104668
14.766782,2.137184
14.799298,2.185847
14.810716,2.243250
14.810716,3.093250
14.799298,3.150653
14.766782,3.199316
14.718119,3.231832
14.660716,3.243250
14.360716,3.243250
14.303313,3.231832
14.254650,3.199316
14.222134,3.150653
14.210716,3.093250
Z" /> 
<path style="fill:#000000; fill-opacity:1.000000; stroke:none;fill-rule:evenodd;"
d="M 13.410716,2.243250
13.422134,2.185847
13.454650,2.137184
13.503313,2.104668
13.560716,2.093250
13.860716,2.093250
13.918119,2.104668
13.966782,2.137184
13.999298,2.185847
14.010716,2.243250
14.010716,3.093250
13.999298,3.150653
13.966782,3.199316
13.918119,3.231832
13.860716,3.243250
13.560716,3.243250
13.503313,3.231832
13.454650,3.199316
13.422134,3.150653
13.410716,3.093250
Z" /> 
</g>
<g style="fill:none; 
stroke:#000000; stroke-width:1.000000; stroke-opacity:1; 
stroke-linecap:round; stroke-linejoin:round;">
<path d="M12.590716 2.693250
L12.590716 3.793250
" />
<path d="M12.590716 7.023250
L12.590716 7.823250
" />
<path d="M21.230716 2.693250
L21.230716 3.793250
" />
<path d="M21.230716 7.023250
L21.230716 7.823250
" />
<path style="fill:#000000; fill-opacity:1.000000; stroke:none;fill-rule:evenodd;"
d="M 13.410716,2.243250
13.422134,2.185847
13.454650,2.137184
13.503313,2.104668
13.560716,2.093250
13.860716,2.093250
13.918119,2.104668
13.966782,2.137184
13.999298,2.185847
14.010716,2.243250
14.010716,3.093250
13.999298,3.150653
13.966782,3.199316
13.918119,3.231832
13.860716,3.243250
13.560716,3.243250
13.503313,3.231832
13.454650,3.199316
13.422134,3.150653
13.410716,3.093250
Z" /> 
<path style="fill:#000000; fill-opacity:1.000000; stroke:none;fill-rule:evenodd;"
d="M 14.210716,2.243250
14.222134,2.185847
14.254650,2.137184
14.303313,2.104668
14.360716,2.093250
14.660716,2.093250
14.718119,2.104668
14.766782,2.137184
14.799298,2.185847
14.810716,2.243250
14.810716,3.093250
14.799298,3.150653
14.766782,3.199316
14.718119,3.231832
14.660716,3.243250
14.360716,3.243250
14.303313,3.231832
14.254650,3.199316
14.222134,3.150653
14.210716,3.093250
Z" /> 
<path style="fill:#000000; fill-opacity:1.000000; stroke:none;fill-rule:evenodd;"
d="M 15.510716,2.168250
15.516425,2.139549
15.532683,2.115217
15.557015,2.098959
15.585716,2.093250
15.735716,2.093250
15.764417,2.098959
15.788749,2.115217
15.805007,2.139549
15.810716,2.168250
15.810716,3.168250
15.805007,3.196951
15.788749,3.221283
15.764417,3.237541
15.735716,3.243250
15.585716,3.243250
15.557015,3.237541
15.532683,3.221283
15.516425,3.196951
15.510716,3.168250
Z" /> 
<path style="fill:#000000; fill-opacity:1.000000; stroke:none;fill-rule:evenodd;"
d="M 16.510716,2.168250
16.516425,2.139549
16.532683,2.115217
16.557015,2.098959
16.585716,2.093250
16.735716,2.093250
16.764417,2.098959
16.788749,2.115217
16.805007,2.139549
16.810716,2.168250
16.810716,3.168250
16.805007,3.196951
16.788749,3.221283
16.764417,3.237541
16.735716,3.243250
16.585716,3.243250
16.557015,3.237541
16.532683,3.221283
16.516425,3.196951
16.510716,3.168250
Z" /> 
<path style="fill:#000000; fill-opacity:1.000000; stroke:none;fill-rule:evenodd;"
d="M 17.010716,2.168250
17.016425,2.139549
17.032683,2.115217
17.057015,2.098959
17.085716,2.093250
17.235716,2.093250
17.264417,2.098959
17.288749,2.115217
17.305007,2.139549
17.310716,2.168250
17.310716,3.168250
17.305007,3.196951
17.288749,3.221283
17.264417,3.237541
17.235716,3.243250
17.085716,3.243250
17.057015,3.237541
17.032683,3.221283
17.016425,3.196951
17.010716,3.168250
Z" /> 
<path style="fill:#000000; fill-opacity:1.000000; stroke:none;fill-rule:evenodd;"
d="M 18.010716,2.168250
18.016425,2.139549
18.032683,2.115217
18.057015,2.098959
18.085716,2.093250
18.235716,2.093250
18.264417,2.098959
18.288749,2.115217
18.305007,2.139549
18.310716,2.168250
18.310716,3.168250
18.305007,3.196951
18.288749,3.221283
18.264417,3.237541
18.235716,3.243250
18.085716,3.243250
18.057015,3.237541
18.032683,3.221283
18.016425,3.196951
18.010716,3.168250
Z" /> 
<path style="fill:#000000; fill-opacity:1.000000; stroke:none;fill-rule:evenodd;"
d="M 19.010716,2.243250
19.022134,2.185847
19.054650,2.137184
19.103313,2.104668
19.160716,2.093250
19.460716,2.093250
19.518119,2.104668
19.566782,2.137184
19.599298,2.185847
19.610716,2.243250
19.610716,3.093250
19.599298,3.150653
19.566782,3.199316
19.518119,3.231832
19.460716,3.243250
19.160716,3.243250
19.103313,3.231832
19.054650,3.199316
19.022134,3.150653
19.010716,3.093250
Z" /> 
<path style="fill:#000000; fill-opacity:1.000000; stroke:none;fill-rule:evenodd;"
d="M 19.810716,2.243250
19.822134,2.185847
19.854650,2.137184
19.903313,2.104668
19.960716,2.093250
20.260716,2.093250
20.318119,2.104668
20.366782,2.137184
20.399298,2.185847
20.410716,2.243250
20.410716,3.093250
20.399298,3.150653
20.366782,3.199316
20.318119,3.231832
20.260716,3.243250
19.960716,3.243250
19.903313,3.231832
19.854650,3.199316
19.822134,3.150653
19.810716,3.093250
Z" /> 
<path style="fill:#000000; fill-opacity:1.000000; stroke:none;fill-rule:evenodd;"
d="M 19.810716,2.243250
19.822134,2.185847
19.854650,2.137184
19.903313,2.104668
19.960716,2.093250
20.260716,2.093250
20.318119,2.104668
20.366782,2.137184
20.399298,2.185847
20.410716,2.243250
20.410716,3.093250
20.399298,3.150653
20.366782,3.199316
20.318119,3.231832
20.260716,3.243250
19.960716,3.243250
19.903313,3.231832
19.854650,3.199316
19.822134,3.150653
19.810716,3.093250
Z" /> 
<path style="fill:#000000; fill-opacity:1.000000; stroke:none;fill-rule:evenodd;"
d="M 19.010716,2.243250
19.022134,2.185847
19.054650,2.137184
19.103313,2.104668
19.160716,2.093250
19.460716,2.093250
19.518119,2.104668
19.566782,2.137184
19.599298,2.185847
19.610716,2.243250
19.610716,3.093250
19.599298,3.150653
19.566782,3.199316
19.518119,3.231832
19.460716,3.243250
19.160716,3.243250
19.103313,3.231832
19.054650,3.199316
19.022134,3.150653
19.010716,3.093250
Z" /> 
<path style="fill:#000000; fill-opacity:1.000000; stroke:none;fill-rule:evenodd;"
d="M 18.510716,2.168250
18.516425,2.139549
18.532683,2.115217
18.557015,2.098959
18.585716,2.093250
18.735716,2.093250
18.764417,2.098959
18.788749,2.115217
18.805007,2.139549
18.810716,2.168250
18.810716,3.168250
18.805007,3.196951
18.788749,3.221283
18.764417,3.237541
18.735716,3.243250
18.585716,3.243250
18.557015,3.237541
18.532683,3.221283
18.516425,3.196951
18.510716,3.168250
Z" /> 
<path style="fill:#000000; fill-opacity:1.000000; stroke:none;fill-rule:evenodd;"
d="M 17.510716,2.168250
17.516425,2.139549
17.532683,2.115217
17.557015,2.098959
17.585716,2.093250
17.735716,2.093250
17.764417,2.098959
17.788749,2.115217
17.805007,2.139549
17.810716,2.168250
17.810716,3.168250
17.805007,3.196951
17.788749,3.221283
17.764417,3.237541
17.735716,3.243250
17.585716,3.243250
17.557015,3.237541
17.532683,3.221283
17.516425,3.196951
17.510716,3.168250
Z" /> 
<path style="fill:#000000; fill-opacity:1.000000; stroke:none;fill-rule:evenodd;"
d="M 16.010716,2.168250
16.016425,2.139549
16.032683,2.115217
16.057015,2.098959
16.085716,2.093250
16.235716,2.093250
16.264417,2.098959
16.288749,2.115217
16.305007,2.139549
16.310716,2.168250
16.310716,3.168250
16.305007,3.196951
16.288749,3.221283
16.264417,3.237541
16.235716,3.243250
16.085716,3.243250
16.057015,3.237541
16.032683,3.221283
16.016425,3.196951
16.010716,3.168250
Z" /> 
<path style="fill:#000000; fill-opacity:1.000000; stroke:none;fill-rule:evenodd;"
d="M 15.010716,2.168250
15.016425,2.139549
15.032683,2.115217
15.057015,2.098959
15.085716,2.093250
15.235716,2.093250
15.264417,2.098959
15.288749,2.115217
15.305007,2.139549
15.310716,2.168250
15.310716,3.168250
15.305007,3.196951
15.288749,3.221283
15.264417,3.237541
15.235716,3.243250
15.085716,3.243250
15.057015,3.237541
15.032683,3.221283
15.016425,3.196951
15.010716,3.168250
Z" /> 
<path style="fill:#000000; fill-opacity:1.000000; stroke:none;fill-rule:evenodd;"
d="M 14.210716,2.243250
14.222134,2.185847
14.254650,2.137184
14.303313,2.104668
14.360716,2.093250
14.660716,2.093250
14.718119,2.104668
14.766782,2.137184
14.799298,2.185847
14.810716,2.243250
14.810716,3.093250
14.799298,3.150653
14.766782,3.199316
14.718119,3.231832
14.660716,3.243250
14.360716,3.243250
14.303313,3.231832
14.254650,3.199316
14.222134,3.150653
14.210716,3.093250
Z" /> 
<path style="fill:#000000; fill-opacity:1.000000; stroke:none;fill-rule:evenodd;"
d="M 13.410716,2.243250
13.422134,2.185847
13.454650,2.137184
13.503313,2.104668
13.560716,2.093250
13.860716,2.093250
13.918119,2.104668
13.966782,2.137184
13.999298,2.185847
14.010716,2.243250
14.010716,3.093250
13.999298,3.150653
13.966782,3.199316
13.918119,3.231832
13.860716,3.243250
13.560716,3.243250
13.503313,3.231832
13.454650,3.199316
13.422134,3.150653
13.410716,3.093250
Z" /> 
</g>
<g style="fill:none; 
stroke:#000000; stroke-width:1.000000; stroke-opacity:1; 
stroke-linecap:round; stroke-linejoin:round;">
<path d="M12.590716 2.693250
L12.590716 3.793250
" />
<path d="M12.590716 7.023250
L12.590716 7.823250
" />
<path d="M21.230716 2.693250
L21.230716 3.793250
" />
<path d="M21.230716 7.023250
L21.230716 7.823250
" />
</g>
<g style="fill:#000000; fill-opacity:1.000000; stroke:none;">
<circle cx="14.020716" cy="3.743250" r="0.325000" /> 
<circle cx="19.800716" cy="3.743250" r="0.325000" /> 
<path style="fill:#000000; fill-opacity:1.000000; stroke:none;fill-rule:evenodd;"
d="M 13.410716,2.243250
13.422134,2.185847
13.454650,2.137184
13.503313,2.104668
13.560716,2.093250
13.860716,2.093250
13.918119,2.104668
13.966782,2.137184
13.999298,2.185847
14.010716,2.243250
14.010716,3.093250
13.999298,3.150653
13.966782,3.199316
13.918119,3.231832
13.860716,3.243250
13.560716,3.243250
13.503313,3.231832
13.454650,3.199316
13.422134,3.150653
13.410716,3.093250
Z" /> 
<path style="fill:#000000; fill-opacity:1.000000; stroke:none;fill-rule:evenodd;"
d="M 14.210716,2.243250
14.222134,2.185847
14.254650,2.137184
14.303313,2.104668
14.360716,2.093250
14.660716,2.093250
14.718119,2.104668
14.766782,2.137184
14.799298,2.185847
14.810716,2.243250
14.810716,3.093250
14.799298,3.150653
14.766782,3.199316
14.718119,3.231832
14.660716,3.243250
14.360716,3.243250
14.303313,3.231832
14.254650,3.199316
14.222134,3.150653
14.210716,3.093250
Z" /> 
<path style="fill:#000000; fill-opacity:1.000000; stroke:none;fill-rule:evenodd;"
d="M 15.510716,2.168250
15.516425,2.139549
15.532683,2.115217
15.557015,2.098959
15.585716,2.093250
15.735716,2.093250
15.764417,2.098959
15.788749,2.115217
15.805007,2.139549
15.810716,2.168250
15.810716,3.168250
15.805007,3.196951
15.788749,3.221283
15.764417,3.237541
15.735716,3.243250
15.585716,3.243250
15.557015,3.237541
15.532683,3.221283
15.516425,3.196951
15.510716,3.168250
Z" /> 
<path style="fill:#000000; fill-opacity:1.000000; stroke:none;fill-rule:evenodd;"
d="M 16.510716,2.168250
16.516425,2.139549
16.532683,2.115217
16.557015,2.098959
16.585716,2.093250
16.735716,2.093250
16.764417,2.098959
16.788749,2.115217
16.805007,2.139549
16.810716,2.168250
16.810716,3.168250
16.805007,3.196951
16.788749,3.221283
16.764417,3.237541
16.735716,3.243250
16.585716,3.243250
16.557015,3.237541
16.532683,3.221283
16.516425,3.196951
16.510716,3.168250
Z" /> 
<path style="fill:#000000; fill-opacity:1.000000; stroke:none;fill-rule:evenodd;"
d="M 17.010716,2.168250
17.016425,2.139549
17.032683,2.115217
17.057015,2.098959
17.085716,2.093250
17.235716,2.093250
17.264417,2.098959
17.288749,2.115217
17.305007,2.139549
17.310716,2.168250
17.310716,3.168250
17.305007,3.196951
17.288749,3.221283
17.264417,3.237541
17.235716,3.243250
17.085716,3.243250
17.057015,3.237541
17.032683,3.221283
17.016425,3.196951
17.010716,3.168250
Z" /> 
<path style="fill:#000000; fill-opacity:1.000000; stroke:none;fill-rule:evenodd;"
d="M 18.010716,2.168250
18.016425,2.139549
18.032683,2.115217
18.057015,2.098959
18.085716,2.093250
18.235716,2.093250
18.264417,2.098959
18.288749,2.115217
18.305007,2.139549
18.310716,2.168250
18.310716,3.168250
18.305007,3.196951
18.288749,3.221283
18.264417,3.237541
18.235716,3.243250
18.085716,3.243250
18.057015,3.237541
18.032683,3.221283
18.016425,3.196951
18.010716,3.168250
Z" /> 
<path style="fill:#000000; fill-opacity:1.000000; stroke:none;fill-rule:evenodd;"
d="M 19.010716,2.243250
19.022134,2.185847
19.054650,2.137184
19.103313,2.104668
19.160716,2.093250
19.460716,2.093250
19.518119,2.104668
19.566782,2.137184
19.599298,2.185847
19.610716,2.243250
19.610716,3.093250
19.599298,3.150653
19.566782,3.199316
19.518119,3.231832
19.460716,3.243250
19.160716,3.243250
19.103313,3.231832
19.054650,3.199316
19.022134,3.150653
19.010716,3.093250
Z" /> 
<path style="fill:#000000; fill-opacity:1.000000; stroke:none;fill-rule:evenodd;"
d="M 19.810716,2.243250
19.822134,2.185847
19.854650,2.137184
19.903313,2.104668
19.960716,2.093250
20.260716,2.093250
20.318119,2.104668
20.366782,2.137184
20.399298,2.185847
20.410716,2.243250
20.410716,3.093250
20.399298,3.150653
20.366782,3.199316
20.318119,3.231832
20.260716,3.243250
19.960716,3.243250
19.903313,3.231832
19.854650,3.199316
19.822134,3.150653
19.810716,3.093250
Z" /> 
<path style="fill:#000000; fill-opacity:1.000000; stroke:none;fill-rule:evenodd;"
d="M 19.810716,2.243250
19.822134,2.185847
19.854650,2.137184
19.903313,2.104668
19.960716,2.093250
20.260716,2.093250
20.318119,2.104668
20.366782,2.137184
20.399298,2.185847
20.410716,2.243250
20.410716,3.093250
20.399298,3.150653
20.366782,3.199316
20.318119,3.231832
20.260716,3.243250
19.960716,3.243250
19.903313,3.231832
19.854650,3.199316
19.822134,3.150653
19.810716,3.093250
Z" /> 
<path style="fill:#000000; fill-opacity:1.000000; stroke:none;fill-rule:evenodd;"
d="M 19.010716,2.243250
19.022134,2.185847
19.054650,2.137184
19.103313,2.104668
19.160716,2.093250
19.460716,2.093250
19.518119,2.104668
19.566782,2.137184
19.599298,2.185847
19.610716,2.243250
19.610716,3.093250
19.599298,3.150653
19.566782,3.199316
19.518119,3.231832
19.460716,3.243250
19.160716,3.243250
19.103313,3.231832
19.054650,3.199316
19.022134,3.150653
19.010716,3.093250
Z" /> 
<path style="fill:#000000; fill-opacity:1.000000; stroke:none;fill-rule:evenodd;"
d="M 18.510716,2.168250
18.516425,2.139549
18.532683,2.115217
18.557015,2.098959
18.585716,2.093250
18.735716,2.093250
18.764417,2.098959
18.788749,2.115217
18.805007,2.139549
18.810716,2.168250
18.810716,3.168250
18.805007,3.196951
18.788749,3.221283
18.764417,3.237541
18.735716,3.243250
18.585716,3.243250
18.557015,3.237541
18.532683,3.221283
18.516425,3.196951
18.510716,3.168250
Z" /> 
<path style="fill:#000000; fill-opacity:1.000000; stroke:none;fill-rule:evenodd;"
d="M 17.510716,2.168250
17.516425,2.139549
17.532683,2.115217
17.557015,2.098959
17.585716,2.093250
17.735716,2.093250
17.764417,2.098959
17.788749,2.115217
17.805007,2.139549
17.810716,2.168250
17.810716,3.168250
17.805007,3.196951
17.788749,3.221283
17.764417,3.237541
17.735716,3.243250
17.585716,3.243250
17.557015,3.237541
17.532683,3.221283
17.516425,3.196951
17.510716,3.168250
Z" /> 
<path style="fill:#000000; fill-opacity:1.000000; stroke:none;fill-rule:evenodd;"
d="M 16.010716,2.168250
16.016425,2.139549
16.032683,2.115217
16.057015,2.098959
16.085716,2.093250
16.235716,2.093250
16.264417,2.098959
16.288749,2.115217
16.305007,2.139549
16.310716,2.168250
16.310716,3.168250
16.305007,3.196951
16.288749,3.221283
16.264417,3.237541
16.235716,3.243250
16.085716,3.243250
16.057015,3.237541
16.032683,3.221283
16.016425,3.196951
16.010716,3.168250
Z" /> 
<path style="fill:#000000; fill-opacity:1.000000; stroke:none;fill-rule:evenodd;"
d="M 15.010716,2.168250
15.016425,2.139549
15.032683,2.115217
15.057015,2.098959
15.085716,2.093250
15.235716,2.093250
15.264417,2.098959
15.288749,2.115217
15.305007,2.139549
15.310716,2.168250
15.310716,3.168250
15.305007,3.196951
15.288749,3.221283
15.264417,3.237541
15.235716,3.243250
15.085716,3.243250
15.057015,3.237541
15.032683,3.221283
15.016425,3.196951
15.010716,3.168250
Z" /> 
<path style="fill:#000000; fill-opacity:1.000000; stroke:none;fill-rule:evenodd;"
d="M 14.210716,2.243250
14.222134,2.185847
14.254650,2.137184
14.303313,2.104668
14.360716,2.093250
14.660716,2.093250
14.718119,2.104668
14.766782,2.137184
14.799298,2.185847
14.810716,2.243250
14.810716,3.093250
14.799298,3.150653
14.766782,3.199316
14.718119,3.231832
14.660716,3.243250
14.360716,3.243250
14.303313,3.231832
14.254650,3.199316
14.222134,3.150653
14.210716,3.093250
Z" /> 
<path style="fill:#000000; fill-opacity:1.000000; stroke:none;fill-rule:evenodd;"
d="M 13.410716,2.243250
13.422134,2.185847
13.454650,2.137184
13.503313,2.104668
13.560716,2.093250
13.860716,2.093250
13.918119,2.104668
13.966782,2.137184
13.999298,2.185847
14.010716,2.243250
14.010716,3.093250
13.999298,3.150653
13.966782,3.199316
13.918119,3.231832
13.860716,3.243250
13.560716,3.243250
13.503313,3.231832
13.454650,3.199316
13.422134,3.150653
13.410716,3.093250
Z" /> 
</g>
<g style="fill:none; 
stroke:#000000; stroke-width:1.000000; stroke-opacity:1; 
stroke-linecap:round; stroke-linejoin:round;">
<path d="M12.590716 2.693250
L12.590716 3.793250
" />
<path d="M12.590716 7.023250
L12.590716 7.823250
" />
<path d="M21.230716 2.693250
L21.230716 3.793250
" />
<path d="M21.230716 7.023250
L21.230716 7.823250
" />
</g>
<g style="fill:none; 
stroke:#000000; stroke-width:0.150000; stroke-opacity:1; 
stroke-linecap:round; stroke-linejoin:round;">
<text x="16.910716" y="1.348250"
textLength="4.535715" font-size="1.333333" lengthAdjust="spacingAndGlyphs"
text-anchor="middle" opacity="0" stroke-opacity="0">REF**</text>
<g class="stroked-text"><desc>REF**</desc>
<path d="M15.577383 1.303070
L15.244050 0.826879
" />
<path d="M15.005955 1.303070
L15.005955 0.303070
" />
<path d="M15.005955 0.303070
L15.386907 0.303070
" />
<path d="M15.386907 0.303070
L15.482145 0.350689
" />
<path d="M15.482145 0.350689
L15.529764 0.398308
" />
<path d="M15.529764 0.398308
L15.577383 0.493546
" />
<path d="M15.577383 0.493546
L15.577383 0.636403
" />
<path d="M15.577383 0.636403
L15.529764 0.731641
" />
<path d="M15.529764 0.731641
L15.482145 0.779260
" />
<path d="M15.482145 0.779260
L15.386907 0.826879
" />
<path d="M15.386907 0.826879
L15.005955 0.826879
" />
<path d="M16.005955 0.779260
L16.339288 0.779260
" />
<path d="M16.482145 1.303070
L16.005955 1.303070
" />
<path d="M16.005955 1.303070
L16.005955 0.303070
" />
<path d="M16.005955 0.303070
L16.482145 0.303070
" />
<path d="M17.244049 0.779260
L16.910716 0.779260
" />
<path d="M16.910716 1.303070
L16.910716 0.303070
" />
<path d="M16.910716 0.303070
L17.386906 0.303070
" />
<path d="M17.910716 0.303070
L17.910716 0.541165
" />
<path d="M17.672621 0.445927
L17.910716 0.541165
" />
<path d="M17.910716 0.541165
L18.148811 0.445927
" />
<path d="M17.767859 0.731641
L17.910716 0.541165
" />
<path d="M17.910716 0.541165
L18.053573 0.731641
" />
<path d="M18.672621 0.303070
L18.672621 0.541165
" />
<path d="M18.434526 0.445927
L18.672621 0.541165
" />
<path d="M18.672621 0.541165
L18.910716 0.445927
" />
<path d="M18.529764 0.731641
L18.672621 0.541165
" />
<path d="M18.672621 0.541165
L18.815478 0.731641
" />
</g></g>
<g style="fill:none; 
stroke:#000000; stroke-width:0.120000; stroke-opacity:1; 
stroke-linecap:round; stroke-linejoin:round;">
<path d="M12.240716 6.248250
L12.240716 4.548250
" />
<path d="M21.580716 6.248250
L21.580716 4.548250
" />
</g>
<g style="fill:none; 
stroke:#000000; stroke-width:0.150000; stroke-opacity:1; 
stroke-linecap:round; stroke-linejoin:round;">
<text x="16.910716" y="11.848250"
textLength="33.821432" font-size="1.333333" lengthAdjust="spacingAndGlyphs"
text-anchor="middle" opacity="0" stroke-opacity="0">GCT_USB4105-GF-A_16P_TopMnt_Horizontal</text>
<g class="stroked-text"><desc>GCT_USB4105-GF-A_16P_TopMnt_Horizontal</desc>
<path d="M0.886905 10.850688
L0.791667 10.803069
" />
<path d="M0.791667 10.803069
L0.648810 10.803069
" />
<path d="M0.648810 10.803069
L0.505953 10.850688
" />
<path d="M0.505953 10.850688
L0.410715 10.945926
" />
<path d="M0.410715 10.945926
L0.363096 11.041164
" />
<path d="M0.363096 11.041164
L0.315477 11.231640
" />
<path d="M0.315477 11.231640
L0.315477 11.374497
" />
<path d="M0.315477 11.374497
L0.363096 11.564973
" />
<path d="M0.363096 11.564973
L0.410715 11.660211
" />
<path d="M0.410715 11.660211
L0.505953 11.755450
" />
<path d="M0.505953 11.755450
L0.648810 11.803069
" />
<path d="M0.648810 11.803069
L0.744048 11.803069
" />
<path d="M0.744048 11.803069
L0.886905 11.755450
" />
<path d="M0.886905 11.755450
L0.934524 11.707830
" />
<path d="M0.934524 11.707830
L0.934524 11.374497
" />
<path d="M0.934524 11.374497
L0.744048 11.374497
" />
<path d="M1.934524 11.707830
L1.886905 11.755450
" />
<path d="M1.886905 11.755450
L1.744048 11.803069
" />
<path d="M1.744048 11.803069
L1.648810 11.803069
" />
<path d="M1.648810 11.803069
L1.505953 11.755450
" />
<path d="M1.505953 11.755450
L1.410715 11.660211
" />
<path d="M1.410715 11.660211
L1.363096 11.564973
" />
<path d="M1.363096 11.564973
L1.315477 11.374497
" />
<path d="M1.315477 11.374497
L1.315477 11.231640
" />
<path d="M1.315477 11.231640
L1.363096 11.041164
" />
<path d="M1.363096 11.041164
L1.410715 10.945926
" />
<path d="M1.410715 10.945926
L1.505953 10.850688
" />
<path d="M1.505953 10.850688
L1.648810 10.803069
" />
<path d="M1.648810 10.803069
L1.744048 10.803069
" />
<path d="M1.744048 10.803069
L1.886905 10.850688
" />
<path d="M1.886905 10.850688
L1.934524 10.898307
" />
<path d="M2.220239 10.803069
L2.791667 10.803069
" />
<path d="M2.505953 11.803069
L2.505953 10.803069
" />
<path d="M2.886905 11.898307
L3.648810 11.898307
" />
<path d="M3.886906 10.803069
L3.886906 11.612592
" />
<path d="M3.886906 11.612592
L3.934525 11.707830
" />
<path d="M3.934525 11.707830
L3.982144 11.755450
" />
<path d="M3.982144 11.755450
L4.077382 11.803069
" />
<path d="M4.077382 11.803069
L4.267858 11.803069
" />
<path d="M4.267858 11.803069
L4.363096 11.755450
" />
<path d="M4.363096 11.755450
L4.410715 11.707830
" />
<path d="M4.410715 11.707830
L4.458334 11.612592
" />
<path d="M4.458334 11.612592
L4.458334 10.803069
" />
<path d="M4.886906 11.755450
L5.029763 11.803069
" />
<path d="M5.029763 11.803069
L5.267858 11.803069
" />
<path d="M5.267858 11.803069
L5.363096 11.755450
" />
<path d="M5.363096 11.755450
L5.410715 11.707830
" />
<path d="M5.410715 11.707830
L5.458334 11.612592
" />
<path d="M5.458334 11.612592
L5.458334 11.517354
" />
<path d="M5.458334 11.517354
L5.410715 11.422116
" />
<path d="M5.410715 11.422116
L5.363096 11.374497
" />
<path d="M5.363096 11.374497
L5.267858 11.326878
" />
<path d="M5.267858 11.326878
L5.077382 11.279259
" />
<path d="M5.077382 11.279259
L4.982144 11.231640
" />
<path d="M4.982144 11.231640
L4.934525 11.184021
" />
<path d="M4.934525 11.184021
L4.886906 11.088783
" />
<path d="M4.886906 11.088783
L4.886906 10.993545
" />
<path d="M4.886906 10.993545
L4.934525 10.898307
" />
<path d="M4.934525 10.898307
L4.982144 10.850688
" />
<path d="M4.982144 10.850688
L5.077382 10.803069
" />
<path d="M5.077382 10.803069
L5.315477 10.803069
" />
<path d="M5.315477 10.803069
L5.458334 10.850688
" />
<path d="M6.220239 11.279259
L6.363096 11.326878
" />
<path d="M6.363096 11.326878
L6.410715 11.374497
" />
<path d="M6.410715 11.374497
L6.458334 11.469735
" />
<path d="M6.458334 11.469735
L6.458334 11.612592
" />
<path d="M6.458334 11.612592
L6.410715 11.707830
" />
<path d="M6.410715 11.707830
L6.363096 11.755450
" />
<path d="M6.363096 11.755450
L6.267858 11.803069
" />
<path d="M6.267858 11.803069
L5.886906 11.803069
" />
<path d="M5.886906 11.803069
L5.886906 10.803069
" />
<path d="M5.886906 10.803069
L6.220239 10.803069
" />
<path d="M6.220239 10.803069
L6.315477 10.850688
" />
<path d="M6.315477 10.850688
L6.363096 10.898307
" />
<path d="M6.363096 10.898307
L6.410715 10.993545
" />
<path d="M6.410715 10.993545
L6.410715 11.088783
" />
<path d="M6.410715 11.088783
L6.363096 11.184021
" />
<path d="M6.363096 11.184021
L6.315477 11.231640
" />
<path d="M6.315477 11.231640
L6.220239 11.279259
" />
<path d="M6.220239 11.279259
L5.886906 11.279259
" />
<path d="M7.315477 11.136402
L7.315477 11.803069
" />
<path d="M7.077382 10.755450
L6.839287 11.469735
" />
<path d="M6.839287 11.469735
L7.458334 11.469735
" />
<path d="M8.363096 11.803069
L7.791668 11.803069
" />
<path d="M8.077382 11.803069
L8.077382 10.803069
" />
<path d="M8.077382 10.803069
L7.982144 10.945926
" />
<path d="M7.982144 10.945926
L7.886906 11.041164
" />
<path d="M7.886906 11.041164
L7.791668 11.088783
" />
<path d="M8.982144 10.803069
L9.077382 10.803069
" />
<path d="M9.077382 10.803069
L9.172620 10.850688
" />
<path d="M9.172620 10.850688
L9.220239 10.898307
" />
<path d="M9.220239 10.898307
L9.267858 10.993545
" />
<path d="M9.267858 10.993545
L9.315477 11.184021
" />
<path d="M9.315477 11.184021
L9.315477 11.422116
" />
<path d="M9.315477 11.422116
L9.267858 11.612592
" />
<path d="M9.267858 11.612592
L9.220239 11.707830
" />
<path d="M9.220239 11.707830
L9.172620 11.755450
" />
<path d="M9.172620 11.755450
L9.077382 11.803069
" />
<path d="M9.077382 11.803069
L8.982144 11.803069
" />
<path d="M8.982144 11.803069
L8.886906 11.755450
" />
<path d="M8.886906 11.755450
L8.839287 11.707830
" />
<path d="M8.839287 11.707830
L8.791668 11.612592
" />
<path d="M8.791668 11.612592
L8.744049 11.422116
" />
<path d="M8.744049 11.422116
L8.744049 11.184021
" />
<path d="M8.744049 11.184021
L8.791668 10.993545
" />
<path d="M8.791668 10.993545
L8.839287 10.898307
" />
<path d="M8.839287 10.898307
L8.886906 10.850688
" />
<path d="M8.886906 10.850688
L8.982144 10.803069
" />
<path d="M10.220239 10.803069
L9.744049 10.803069
" />
<path d="M9.744049 10.803069
L9.696430 11.279259
" />
<path d="M9.696430 11.279259
L9.744049 11.231640
" />
<path d="M9.744049 11.231640
L9.839287 11.184021
" />
<path d="M9.839287 11.184021
L10.077382 11.184021
" />
<path d="M10.077382 11.184021
L10.172620 11.231640
" />
<path d="M10.172620 11.231640
L10.220239 11.279259
" />
<path d="M10.220239 11.279259
L10.267858 11.374497
" />
<path d="M10.267858 11.374497
L10.267858 11.612592
" />
<path d="M10.267858 11.612592
L10.220239 11.707830
" />
<path d="M10.220239 11.707830
L10.172620 11.755450
" />
<path d="M10.172620 11.755450
L10.077382 11.803069
" />
<path d="M10.077382 11.803069
L9.839287 11.803069
" />
<path d="M9.839287 11.803069
L9.744049 11.755450
" />
<path d="M9.744049 11.755450
L9.696430 11.707830
" />
<path d="M10.696430 11.422116
L11.458334 11.422116
" />
<path d="M12.458334 10.850688
L12.363096 10.803069
" />
<path d="M12.363096 10.803069
L12.220239 10.803069
" />
<path d="M12.220239 10.803069
L12.077382 10.850688
" />
<path d="M12.077382 10.850688
L11.982144 10.945926
" />
<path d="M11.982144 10.945926
L11.934525 11.041164
" />
<path d="M11.934525 11.041164
L11.886906 11.231640
" />
<path d="M11.886906 11.231640
L11.886906 11.374497
" />
<path d="M11.886906 11.374497
L11.934525 11.564973
" />
<path d="M11.934525 11.564973
L11.982144 11.660211
" />
<path d="M11.982144 11.660211
L12.077382 11.755450
" />
<path d="M12.077382 11.755450
L12.220239 11.803069
" />
<path d="M12.220239 11.803069
L12.315477 11.803069
" />
<path d="M12.315477 11.803069
L12.458334 11.755450
" />
<path d="M12.458334 11.755450
L12.505953 11.707830
" />
<path d="M12.505953 11.707830
L12.505953 11.374497
" />
<path d="M12.505953 11.374497
L12.315477 11.374497
" />
<path d="M13.267858 11.279259
L12.934525 11.279259
" />
<path d="M12.934525 11.803069
L12.934525 10.803069
" />
<path d="M12.934525 10.803069
L13.410715 10.803069
" />
<path d="M13.791668 11.422116
L14.553572 11.422116
" />
<path d="M14.982144 11.517354
L15.458334 11.517354
" />
<path d="M14.886906 11.803069
L15.220239 10.803069
" />
<path d="M15.220239 10.803069
L15.553572 11.803069
" />
<path d="M15.648810 11.898307
L16.410715 11.898307
" />
<path d="M17.172619 11.803069
L16.601192 11.803069
" />
<path d="M16.886906 11.803069
L16.886906 10.803069
" />
<path d="M16.886906 10.803069
L16.791668 10.945926
" />
<path d="M16.791668 10.945926
L16.696430 11.041164
" />
<path d="M16.696430 11.041164
L16.601192 11.088783
" />
<path d="M18.029762 10.803069
L17.839286 10.803069
" />
<path d="M17.839286 10.803069
L17.744048 10.850688
" />
<path d="M17.744048 10.850688
L17.696429 10.898307
" />
<path d="M17.696429 10.898307
L17.601191 11.041164
" />
<path d="M17.601191 11.041164
L17.553572 11.231640
" />
<path d="M17.553572 11.231640
L17.553572 11.612592
" />
<path d="M17.553572 11.612592
L17.601191 11.707830
" />
<path d="M17.601191 11.707830
L17.648810 11.755450
" />
<path d="M17.648810 11.755450
L17.744048 11.803069
" />
<path d="M17.744048 11.803069
L17.934524 11.803069
" />
<path d="M17.934524 11.803069
L18.029762 11.755450
" />
<path d="M18.029762 11.755450
L18.077381 11.707830
" />
<path d="M18.077381 11.707830
L18.125000 11.612592
" />
<path d="M18.125000 11.612592
L18.125000 11.374497
" />
<path d="M18.125000 11.374497
L18.077381 11.279259
" />
<path d="M18.077381 11.279259
L18.029762 11.231640
" />
<path d="M18.029762 11.231640
L17.934524 11.184021
" />
<path d="M17.934524 11.184021
L17.744048 11.184021
" />
<path d="M17.744048 11.184021
L17.648810 11.231640
" />
<path d="M17.648810 11.231640
L17.601191 11.279259
" />
<path d="M17.601191 11.279259
L17.553572 11.374497
" />
<path d="M18.553572 11.803069
L18.553572 10.803069
" />
<path d="M18.553572 10.803069
L18.934524 10.803069
" />
<path d="M18.934524 10.803069
L19.029762 10.850688
" />
<path d="M19.029762 10.850688
L19.077381 10.898307
" />
<path d="M19.077381 10.898307
L19.125000 10.993545
" />
<path d="M19.125000 10.993545
L19.125000 11.136402
" />
<path d="M19.125000 11.136402
L19.077381 11.231640
" />
<path d="M19.077381 11.231640
L19.029762 11.279259
" />
<path d="M19.029762 11.279259
L18.934524 11.326878
" />
<path d="M18.934524 11.326878
L18.553572 11.326878
" />
<path d="M19.315477 11.898307
L20.077381 11.898307
" />
<path d="M20.172620 10.803069
L20.744048 10.803069
" />
<path d="M20.458334 11.803069
L20.458334 10.803069
" />
<path d="M21.220239 11.803069
L21.125001 11.755450
" />
<path d="M21.125001 11.755450
L21.077382 11.707830
" />
<path d="M21.077382 11.707830
L21.029763 11.612592
" />
<path d="M21.029763 11.612592
L21.029763 11.326878
" />
<path d="M21.029763 11.326878
L21.077382 11.231640
" />
<path d="M21.077382 11.231640
L21.125001 11.184021
" />
<path d="M21.125001 11.184021
L21.220239 11.136402
" />
<path d="M21.220239 11.136402
L21.363096 11.136402
" />
<path d="M21.363096 11.136402
L21.458334 11.184021
" />
<path d="M21.458334 11.184021
L21.505953 11.231640
" />
<path d="M21.505953 11.231640
L21.553572 11.326878
" />
<path d="M21.553572 11.326878
L21.553572 11.612592
" />
<path d="M21.553572 11.612592
L21.505953 11.707830
" />
<path d="M21.505953 11.707830
L21.458334 11.755450
" />
<path d="M21.458334 11.755450
L21.363096 11.803069
" />
<path d="M21.363096 11.803069
L21.220239 11.803069
" />
<path d="M21.982144 11.136402
L21.982144 12.136402
" />
<path d="M21.982144 11.184021
L22.077382 11.136402
" />
<path d="M22.077382 11.136402
L22.267858 11.136402
" />
<path d="M22.267858 11.136402
L22.363096 11.184021
" />
<path d="M22.363096 11.184021
L22.410715 11.231640
" />
<path d="M22.410715 11.231640
L22.458334 11.326878
" />
<path d="M22.458334 11.326878
L22.458334 11.612592
" />
<path d="M22.458334 11.612592
L22.410715 11.707830
" />
<path d="M22.410715 11.707830
L22.363096 11.755450
" />
<path d="M22.363096 11.755450
L22.267858 11.803069
" />
<path d="M22.267858 11.803069
L22.077382 11.803069
" />
<path d="M22.077382 11.803069
L21.982144 11.755450
" />
<path d="M22.886906 11.803069
L22.886906 10.803069
" />
<path d="M22.886906 10.803069
L23.220239 11.517354
" />
<path d="M23.220239 11.517354
L23.553572 10.803069
" />
<path d="M23.553572 10.803069
L23.553572 11.803069
" />
<path d="M24.029763 11.136402
L24.029763 11.803069
" />
<path d="M24.029763 11.231640
L24.077382 11.184021
" />
<path d="M24.077382 11.184021
L24.172620 11.136402
" />
<path d="M24.172620 11.136402
L24.315477 11.136402
" />
<path d="M24.315477 11.136402
L24.410715 11.184021
" />
<path d="M24.410715 11.184021
L24.458334 11.279259
" />
<path d="M24.458334 11.279259
L24.458334 11.803069
" />
<path d="M24.791668 11.136402
L25.172620 11.136402
" />
<path d="M24.934525 10.803069
L24.934525 11.660211
" />
<path d="M24.934525 11.660211
L24.982144 11.755450
" />
<path d="M24.982144 11.755450
L25.077382 11.803069
" />
<path d="M25.077382 11.803069
L25.172620 11.803069
" />
<path d="M25.267859 11.898307
L26.029763 11.898307
" />
<path d="M26.267859 11.803069
L26.267859 10.803069
" />
<path d="M26.267859 11.279259
L26.839287 11.279259
" />
<path d="M26.839287 11.803069
L26.839287 10.803069
" />
<path d="M27.458335 11.803069
L27.363097 11.755450
" />
<path d="M27.363097 11.755450
L27.315478 11.707830
" />
<path d="M27.315478 11.707830
L27.267859 11.612592
" />
<path d="M27.267859 11.612592
L27.267859 11.326878
" />
<path d="M27.267859 11.326878
L27.315478 11.231640
" />
<path d="M27.315478 11.231640
L27.363097 11.184021
" />
<path d="M27.363097 11.184021
L27.458335 11.136402
" />
<path d="M27.458335 11.136402
L27.601192 11.136402
" />
<path d="M27.601192 11.136402
L27.696430 11.184021
" />
<path d="M27.696430 11.184021
L27.744049 11.231640
" />
<path d="M27.744049 11.231640
L27.791668 11.326878
" />
<path d="M27.791668 11.326878
L27.791668 11.612592
" />
<path d="M27.791668 11.612592
L27.744049 11.707830
" />
<path d="M27.744049 11.707830
L27.696430 11.755450
" />
<path d="M27.696430 11.755450
L27.601192 11.803069
" />
<path d="M27.601192 11.803069
L27.458335 11.803069
" />
<path d="M28.220240 11.803069
L28.220240 11.136402
" />
<path d="M28.220240 11.326878
L28.267859 11.231640
" />
<path d="M28.267859 11.231640
L28.315478 11.184021
" />
<path d="M28.315478 11.184021
L28.410716 11.136402
" />
<path d="M28.410716 11.136402
L28.505954 11.136402
" />
<path d="M28.839288 11.803069
L28.839288 11.136402
" />
<path d="M28.839288 10.803069
L28.791669 10.850688
" />
<path d="M28.791669 10.850688
L28.839288 10.898307
" />
<path d="M28.839288 10.898307
L28.886907 10.850688
" />
<path d="M28.886907 10.850688
L28.839288 10.803069
" />
<path d="M28.839288 10.803069
L28.839288 10.898307
" />
<path d="M29.220240 11.136402
L29.744049 11.136402
" />
<path d="M29.744049 11.136402
L29.220240 11.803069
" />
<path d="M29.220240 11.803069
L29.744049 11.803069
" />
<path d="M30.267859 11.803069
L30.172621 11.755450
" />
<path d="M30.172621 11.755450
L30.125002 11.707830
" />
<path d="M30.125002 11.707830
L30.077383 11.612592
" />
<path d="M30.077383 11.612592
L30.077383 11.326878
" />
<path d="M30.077383 11.326878
L30.125002 11.231640
" />
<path d="M30.125002 11.231640
L30.172621 11.184021
" />
<path d="M30.172621 11.184021
L30.267859 11.136402
" />
<path d="M30.267859 11.136402
L30.410716 11.136402
" />
<path d="M30.410716 11.136402
L30.505954 11.184021
" />
<path d="M30.505954 11.184021
L30.553573 11.231640
" />
<path d="M30.553573 11.231640
L30.601192 11.326878
" />
<path d="M30.601192 11.326878
L30.601192 11.612592
" />
<path d="M30.601192 11.612592
L30.553573 11.707830
" />
<path d="M30.553573 11.707830
L30.505954 11.755450
" />
<path d="M30.505954 11.755450
L30.410716 11.803069
" />
<path d="M30.410716 11.803069
L30.267859 11.803069
" />
<path d="M31.029764 11.136402
L31.029764 11.803069
" />
<path d="M31.029764 11.231640
L31.077383 11.184021
" />
<path d="M31.077383 11.184021
L31.172621 11.136402
" />
<path d="M31.172621 11.136402
L31.315478 11.136402
" />
<path d="M31.315478 11.136402
L31.410716 11.184021
" />
<path d="M31.410716 11.184021
L31.458335 11.279259
" />
<path d="M31.458335 11.279259
L31.458335 11.803069
" />
<path d="M31.791669 11.136402
L32.172621 11.136402
" />
<path d="M31.934526 10.803069
L31.934526 11.660211
" />
<path d="M31.934526 11.660211
L31.982145 11.755450
" />
<path d="M31.982145 11.755450
L32.077383 11.803069
" />
<path d="M32.077383 11.803069
L32.172621 11.803069
" />
<path d="M32.934526 11.803069
L32.934526 11.279259
" />
<path d="M32.934526 11.279259
L32.886907 11.184021
" />
<path d="M32.886907 11.184021
L32.791669 11.136402
" />
<path d="M32.791669 11.136402
L32.601193 11.136402
" />
<path d="M32.601193 11.136402
L32.505955 11.184021
" />
<path d="M32.934526 11.755450
L32.839288 11.803069
" />
<path d="M32.839288 11.803069
L32.601193 11.803069
" />
<path d="M32.601193 11.803069
L32.505955 11.755450
" />
<path d="M32.505955 11.755450
L32.458336 11.660211
" />
<path d="M32.458336 11.660211
L32.458336 11.564973
" />
<path d="M32.458336 11.564973
L32.505955 11.469735
" />
<path d="M32.505955 11.469735
L32.601193 11.422116
" />
<path d="M32.601193 11.422116
L32.839288 11.422116
" />
<path d="M32.839288 11.422116
L32.934526 11.374497
" />
<path d="M33.553574 11.803069
L33.458336 11.755450
" />
<path d="M33.458336 11.755450
L33.410717 11.660211
" />
<path d="M33.410717 11.660211
L33.410717 10.803069
" />
</g><text x="16.910716" y="6.848250"
textLength="4.535715" font-size="1.333333" lengthAdjust="spacingAndGlyphs"
text-anchor="middle" opacity="0" stroke-opacity="0">REF**</text>
<g class="stroked-text"><desc>REF**</desc>
<path d="M15.577383 6.803069
L15.244050 6.326879
" />
<path d="M15.005955 6.803069
L15.005955 5.803070
" />
<path d="M15.005955 5.803070
L15.386907 5.803070
" />
<path d="M15.386907 5.803070
L15.482145 5.850689
" />
<path d="M15.482145 5.850689
L15.529764 5.898308
" />
<path d="M15.529764 5.898308
L15.577383 5.993546
" />
<path d="M15.577383 5.993546
L15.577383 6.136403
" />
<path d="M15.577383 6.136403
L15.529764 6.231641
" />
<path d="M15.529764 6.231641
L15.482145 6.279260
" />
<path d="M15.482145 6.279260
L15.386907 6.326879
" />
<path d="M15.386907 6.326879
L15.005955 6.326879
" />
<path d="M16.005955 6.279260
L16.339288 6.279260
" />
<path d="M16.482145 6.803069
L16.005955 6.803069
" />
<path d="M16.005955 6.803069
L16.005955 5.803070
" />
<path d="M16.005955 5.803070
L16.482145 5.803070
" />
<path d="M17.244049 6.279260
L16.910716 6.279260
" />
<path d="M16.910716 6.803069
L16.910716 5.803070
" />
<path d="M16.910716 5.803070
L17.386906 5.803070
" />
<path d="M17.910716 5.803070
L17.910716 6.041165
" />
<path d="M17.672621 5.945927
L17.910716 6.041165
" />
<path d="M17.910716 6.041165
L18.148811 5.945927
" />
<path d="M17.767859 6.231641
L17.910716 6.041165
" />
<path d="M17.910716 6.041165
L18.053573 6.231641
" />
<path d="M18.672621 5.803070
L18.672621 6.041165
" />
<path d="M18.434526 5.945927
L18.672621 6.041165
" />
<path d="M18.672621 6.041165
L18.910716 5.945927
" />
<path d="M18.529764 6.231641
L18.672621 6.041165
" />
<path d="M18.672621 6.041165
L18.815478 6.231641
" />
</g><path style="fill:none; 
stroke:#000000; stroke-width:0.100000; stroke-opacity:1; 
stroke-linecap:round; stroke-linejoin:round;fill:none"
d="M 12.440716,2.673250
21.380716,2.673250
21.380716,10.023250
12.440716,10.023250
Z" /> 
<path style="fill:none; 
stroke:#000000; stroke-width:0.050000; stroke-opacity:1; 
stroke-linecap:round; stroke-linejoin:round;fill:none"
d="M 11.590716,1.588250
22.230716,1.588250
22.230716,10.528250
11.590716,10.528250
Z" /> 
</g>
<g style="fill:#000000; fill-opacity:1.000000; stroke:none;">
<circle cx="14.020716" cy="3.743250" r="0.324999" /> 
<circle cx="19.800716" cy="3.743250" r="0.324999" /> 
</g>
<g style="fill:none; 
stroke:#FFFFFF; stroke-width:0.600000; stroke-opacity:1; 
stroke-linecap:round; stroke-linejoin:round;">
<path d="M12.590716 2.693250
L12.590716 3.793250
" />
</g>
<g style="fill:none; 
stroke:#FFFFFF; stroke-width:0.600000; stroke-opacity:1; 
stroke-linecap:round; stroke-linejoin:round;">
<path d="M12.590716 7.023250
L12.590716 7.823250
" />
</g>
<g style="fill:none; 
stroke:#FFFFFF; stroke-width:0.600000; stroke-opacity:1; 
stroke-linecap:round; stroke-linejoin:round;">
<path d="M21.230716 2.693250
L21.230716 3.793250
" />
</g>
<g style="fill:none; 
stroke:#FFFFFF; stroke-width:0.600000; stroke-opacity:1; 
stroke-linecap:round; stroke-linejoin:round;">
<path d="M21.230716 7.023250
L21.230716 7.823250
" />
</g> 
</svg>
